<?xml version="1.0" encoding="UTF-8"?><svg id="Layer_1" xmlns="http://www.w3.org/2000/svg" xmlns:xlink="http://www.w3.org/1999/xlink" viewBox="0 0 227.89 56.6"><defs><style>.cls-1{fill:url(#_未命名漸層);}.cls-2{fill:url(#_未命名漸層_2);}.cls-3{fill:url(#_未命名漸層_3);}.cls-4{fill:url(#_未命名漸層_4);}.cls-5{fill:none;stroke:url(#_未命名漸層_5);stroke-linecap:round;stroke-miterlimit:10;}.cls-6{fill:#e44f4f;}</style><linearGradient id="_未命名漸層" x1="-335.05" y1="23.57" x2="-335.05" y2="22.57" gradientTransform="translate(4113.47 -783.47) scale(12.11 35.14)" gradientUnits="userSpaceOnUse"><stop offset="0" stop-color="#d01f26"/><stop offset=".2" stop-color="#dc1e25"/><stop offset=".58" stop-color="#ed1b23"/><stop offset=".95" stop-color="#ed1f23"/></linearGradient><linearGradient id="_未命名漸層_2" x1="-335.11" y1="23.57" x2="-335.11" y2="22.57" gradientTransform="translate(4094.16 -783.47) scale(12.1 35.14)" gradientUnits="userSpaceOnUse"><stop offset="0" stop-color="#d01f26"/><stop offset=".2" stop-color="#dc1e25"/><stop offset=".58" stop-color="#ed1b23"/><stop offset=".95" stop-color="#ed1f23"/></linearGradient><linearGradient id="_未命名漸層_3" x1="-335.13" y1="23.57" x2="-335.13" y2="22.57" gradientTransform="translate(4081.1 -783.47) scale(12.11 35.14)" gradientUnits="userSpaceOnUse"><stop offset="0" stop-color="#d01f26"/><stop offset=".2" stop-color="#dc1e25"/><stop offset=".58" stop-color="#ed1b23"/><stop offset=".95" stop-color="#ed1f23"/></linearGradient><linearGradient id="_未命名漸層_4" x1="-335.07" y1="23.57" x2="-335.07" y2="22.57" gradientTransform="translate(4067.11 -783.47) scale(12.12 35.14)" gradientUnits="userSpaceOnUse"><stop offset="0" stop-color="#d01f26"/><stop offset=".2" stop-color="#dc1e25"/><stop offset=".58" stop-color="#ed1b23"/><stop offset=".95" stop-color="#ed1f23"/></linearGradient><linearGradient id="_未命名漸層_5" x1="80.6" y1="-.71" x2="80.6" y2="55.89" gradientTransform="translate(0 55.89) scale(1 -1)" gradientUnits="userSpaceOnUse"><stop offset="0" stop-color="#d01f26"/><stop offset=".2" stop-color="#dc1e25"/><stop offset=".58" stop-color="#ed1b23"/><stop offset=".95" stop-color="#ed1f23"/></linearGradient></defs><g id="_工作區域_6"><path id="Rectangle_2094" class="cls-6" d="m144.25,13.43h15.82c.94,0,1.71.76,1.71,1.7h0c0,.94-.77,1.7-1.71,1.7h-15.82c-.94,0-1.71-.76-1.71-1.7h0c0-.94.77-1.7,1.71-1.7Z"/><path id="Path_790" class="cls-6" d="m227.43,36.9v-3c0-.12-.09-.21-.21-.21h-12.79v-2.25h9.97c.11,0,.21-.09.21-.21v-3c0-.12-.09-.21-.21-.21h-9.97v-1.01h11.32c.12,0,.21-.09.21-.21v-3c0-.12-.09-.21-.21-.21h-5.9l1.52-2.28h5.11c.12,0,.21-.09.21-.21v-3c0-.11-.09-.21-.21-.21h-2.54l2.53-3.78c.06-.1.03-.23-.07-.29-.03-.02-.07-.03-.11-.03h-4.93c-.07,0-.13.03-.17.09l-2.43,3.63v-1.8c0-1.83-1.48-3.31-3.31-3.31h-.64c-1.39,0-2.63.87-3.1,2.17.21-.2.49-.32.79-.32h.02c.63,0,1.14.51,1.14,1.14v2.49h-2.94v-4.32c0-.12-.09-.21-.21-.21h-4.68c-.12,0-.21.09-.21.21v3.74l-2.29-3.43c-.04-.06-.1-.09-.17-.09h-4.92c-.12,0-.21.1-.21.21,0,.04,0,.08.03.11l2.53,3.78h-3.32c-.11,0-.21.09-.21.21v3c0,.12.09.21.21.21h5.18l1.53,2.28h-5.97c-.11,0-.21.09-.21.21h0v3c0,.11.09.21.21.21h11.32v1.01h-9.97c-.11,0-.21.09-.21.21v3c0,.12.09.21.21.21h9.97v2.24h-12.79c-.11,0-.21.09-.21.21v3c0,.12.09.21.21.21h12.79v6.86c0,.12.09.21.21.21h4.68c.11,0,.21-.09.21-.21v-6.86h12.79c.11,0,.21-.09.21-.21v.02Zm-19.54-15.58h8.06l-1.52,2.28h-5.01l-1.53-2.28Z"/><path id="Path_791" class="cls-6" d="m150.44,28.36c-1.23,0-2.22.99-2.22,2.22v.43c0,.93.58,1.77,1.46,2.09-.13-.14-.21-.33-.21-.53h0c0-.39.27-.71.64-.77v2.46h-2.51v-5.69c0-.12-.09-.21-.21-.21h-4.04c-.12,0-.21.09-.21.21v12.5c0,1.71,1.39,3.1,3.1,3.1h12.18c1.71,0,3.1-1.39,3.1-3.1v-9.6c0-1.71-1.39-3.1-3.1-3.1h-7.99,0Zm-2.84,9.29h2.51v3.09h-2.51v-3.09Zm9.47,3.09h-2.51v-3.09h2.51v3.09Zm0-6.5h-2.51v-2.48h2.51v2.48Z"/><path id="Path_792" class="cls-6" d="m128.22,21.96h-12.59v-2.77h10.89c.12,0,.21-.09.21-.21v-3c0-.12-.09-.21-.21-.21h-10.89v-.05c0-1.83-1.48-3.31-3.31-3.31h-.63c-1.39,0-2.63.87-3.1,2.17.21-.2.49-.32.78-.32h.02c.63,0,1.14.51,1.14,1.14h0v.36h-11.33c-.12,0-.21.09-.21.21h0v3c0,.12.09.21.21.21h11.33v2.77h-13.03c-.12,0-.21.09-.21.21v3c0,.12.09.21.21.21h7.16l2.64,3.95h-8.11c-.12,0-.21.09-.21.21v2.99c0,.12.09.21.21.21h11.33v2.67h-13.03c-.12,0-.21.09-.21.21h0v3c0,.12.09.21.21.21h13.03v5.15c0,.12.09.21.21.21h4.68c.12,0,.21-.09.21-.21v-5.16h12.58c.12,0,.21-.09.21-.21v-3c0-.12-.09-.21-.21-.21h-12.59v-2.66h10.89c.12,0,.21-.09.21-.21v-3c0-.12-.09-.21-.21-.21h-7.88l2.64-3.95h6.94c.12,0,.21-.09.21-.21v-3c0-.12-.1-.21-.21-.21h0l.02.02Zm-13.53,7.37h-3.44l-2.64-3.95h8.72l-2.64,3.95Z"/><path id="Path_793" class="cls-6" d="m176.78,13.41c-1.23,0-2.22,1-2.22,2.23v.43c0,.93.58,1.77,1.46,2.09-.13-.14-.21-.33-.21-.53h0c0-.44.34-.78.77-.78h6.61c.35-.01.68.17.88.47l5.39,8.45c.04.06.1.1.18.1h5.61c.12,0,.21-.1.2-.21,0-.04,0-.07-.03-.1l-6.82-10.69c-.57-.89-1.56-1.43-2.62-1.43h-9.2v-.03Z"/><path id="Path_794" class="cls-6" d="m181.97,32.01h10.76c.12,0,.21-.09.21-.21v-3c0-.12-.09-.21-.21-.21h-10.76v-4.24c0-1.83-1.48-3.31-3.31-3.31h-.64c-1.42.25-2.67,1.07-3.47,2.27.2-.19.84-.15,1.15-.15h.02c.63,0,1.14.24,1.14.87v16.71h-5.82v-12.8c0-.12-.09-.21-.21-.21h-4.68c-.11,0-.21.09-.21.21h0v12.8h-2.27c-.12,0-.21.09-.21.21v3c0,.12.09.21.21.21h30.65c.12,0,.21-.09.21-.21v-3c0-.12-.09-.21-.21-.21h-12.37v-8.74h.02Z"/><path id="Path_795" class="cls-6" d="m144.11,17.85v5.64c0,1.71,1.39,3.1,3.1,3.1h9.84c1.71,0,3.1-1.39,3.1-3.1v-2.75c0-1.71-1.39-3.1-3.1-3.1h-5.64c-1.23,0-2.22.99-2.22,2.22v.43c0,.93.58,1.77,1.46,2.09-.14-.14-.21-.33-.21-.53v-.02c0-.42.34-.76.77-.76h4.5v2.12h-7.13v-5.34c0-.12-.09-.21-.21-.21h-4.04c-.12,0-.21.09-.21.21h0Z"/><path id="Path_796" class="cls-6" d="m141.95,19.71v-.03c0-1.58-1.28-2.86-2.86-2.86h-.44v-1.1c0-1.83-1.48-3.31-3.3-3.31h-.64c-1.39,0-2.63.87-3.1,2.17.21-.2.49-.32.79-.32h.02c.63,0,1.14.51,1.13,1.14v1.41h-3.23c-.12,0-.21.09-.21.21h0v3c0,.12.09.21.21.21h6.3c.12,0,.21.1.21.21,0,.03,0,.05-.02.08-1.14,2.55-2.54,4.97-4.18,7.23h-.05v.06c-.9,1.23-1.87,2.39-2.91,3.49-.08.09-.07.22.02.3.04.03.08.05.13.05h2.77v12.3c0,.12.09.21.21.21h4.68c.12,0,.21-.09.21-.21h0v-15.77c1.62-2.34,2.98-4.84,4.07-7.48.13-.32.2-.67.2-1.01v.02Z"/><path id="Path_797" class="cls-6" d="m173.76,13.38h-5.01c-.09,0-.17.05-.2.14-1.37,4.15-3.18,8.14-5.4,11.9-.06.1-.02.23.08.29.03.02.06.03.1.03h5.54c.07,0,.14-.04.18-.1,2.18-3.75,3.83-7.79,4.91-11.99.03-.11-.04-.22-.16-.25h-.04,0v-.02Z"/><path id="Path_798" class="cls-6" d="m141.6,28.03h-3.15c-.11,0-.2.09-.21.2,0,2.12.06,6.62.46,10.4,0,.11.1.18.21.18h3.61c.11,0,.2-.08.21-.19v-.05c-.6-3.41-.91-6.87-.92-10.33,0-.11-.1-.21-.21-.21h0Z"/><path id="Path_799" class="cls-6" d="m222.52,37.67h-5.58c-.11,0-.21.1-.21.21,0,.04,0,.09.04.12l4.34,5.82s.1.08.17.08h6.41c.12,0,.21-.1.2-.22,0-.05-.02-.1-.05-.13-2.07-2.19-4.2-4.67-5.16-5.81-.04-.05-.1-.07-.16-.07h0Z"/><path id="Path_800" class="cls-6" d="m196.29,43.9h6.41c.06,0,.13-.03.17-.08l4.34-5.82c.07-.09.05-.22-.05-.29-.03-.02-.08-.04-.12-.04h-5.58c-.06,0-.12.02-.16.07-.96,1.14-3.08,3.62-5.16,5.81-.08.08-.07.22,0,.29.04.04.09.06.14.06h0Z"/></g><g id="Group_3046"><g id="Group_2876"><path id="Path_1993" class="cls-1" d="m50.53,15.28s-.6.18-.59.39,0,4.75,0,4.75c0,0-.09.1.25.1,1.28-.13,2.48.62,2.92,1.82.13.74.16,1.48.12,2.23v21.3h8.81V10.73h-5.23c-1.69,2.01-3.85,3.57-6.28,4.55Z"/><path id="Path_1994" class="cls-2" d="m33.88,15.28s-.6.18-.58.39,0,4.75,0,4.75c0,0-.09.1.24.1,1.28-.14,2.48.61,2.92,1.82.13.74.17,1.48.12,2.23v21.3h8.81V10.73h-5.23c-1.69,2.01-3.85,3.57-6.28,4.55Z"/><path id="Path_1995" class="cls-3" d="m17.24,15.28s-.59.18-.58.39,0,4.75,0,4.75c0,0-.09.1.25.1,1.28-.13,2.48.62,2.92,1.82.12.74.16,1.48.12,2.23v21.3h8.81V10.73h-5.23c-1.69,2.01-3.85,3.57-6.29,4.55Z"/><path id="Path_1996" class="cls-4" d="m.6,15.28S0,15.47.01,15.67.01,20.42.01,20.42c0,0-.09.1.26.1,1.27-.13,2.47.62,2.91,1.82.13.74.17,1.48.12,2.23v21.3h8.81V10.73h-5.23c-1.69,2.01-3.85,3.57-6.29,4.55h0Z"/></g></g><line class="cls-5" x1="80.6" y1=".5" x2="80.6" y2="56.1"/></svg>