<svg width="50" height="50" viewBox="0 0 50 50" fill="none" xmlns="http://www.w3.org/2000/svg">
<path opacity="0.01" d="M25 50C38.8071 50 50 38.8071 50 25C50 11.1929 38.8071 0 25 0C11.1929 0 0 11.1929 0 25C0 38.8071 11.1929 50 25 50Z" fill="#393939"/>
<path d="M40.8919 24.126C40.8272 23.1891 40.6955 22.2581 40.4979 21.34C39.7673 18.7818 38.2226 16.5314 36.0979 14.93C34.0738 13.358 31.7357 12.2389 29.2417 11.6486C26.7477 11.0582 24.156 11.0103 21.6419 11.508C18.3264 11.9847 15.2464 13.4971 12.8419 15.829C9.15692 19.463 8.10793 23.703 9.96493 28.205C11.7819 32.605 15.3959 34.989 19.8069 36.311C20.7069 36.584 21.6439 36.711 22.5529 36.911C23.6429 37.143 23.9159 37.446 23.8649 38.526C23.8349 39.132 23.6649 39.717 23.6329 40.326C23.6129 40.679 23.6229 41.204 23.8329 41.366C24.0024 41.4302 24.1835 41.4579 24.3644 41.4474C24.5453 41.4369 24.722 41.3884 24.8829 41.305C25.6899 40.9276 26.4721 40.4994 27.2249 40.023C31.0164 37.8238 34.4794 35.1017 37.5119 31.937C39.5677 29.8422 40.7723 27.0586 40.8919 24.126Z" fill="#DDB593"/>
<path d="M24.6279 23.549C24.6279 24.659 24.6179 25.76 24.6279 26.87C24.6379 27.445 24.4969 27.91 23.8199 27.91C23.1429 27.91 22.9819 27.466 22.9819 26.88C22.9919 25.012 22.9619 23.145 23.0119 21.28C23.0274 21.0884 23.0831 20.9023 23.1753 20.7336C23.2674 20.5649 23.3941 20.4176 23.5469 20.301C23.9709 20.028 24.3649 20.321 24.6469 20.701C25.6359 22.033 26.6359 23.366 27.7759 24.88C27.7759 23.537 27.7859 22.407 27.7659 21.286C27.7559 20.711 27.8869 20.256 28.5659 20.216C29.1209 20.186 29.4039 20.549 29.4039 21.306C29.4039 23.153 29.4339 24.991 29.3839 26.838C29.3737 27.0285 29.3239 27.2148 29.2378 27.385C29.1518 27.5553 29.0312 27.7058 28.8839 27.827C28.4399 28.1 28.0359 27.797 27.7229 27.383C26.7539 26.083 25.7749 24.799 24.7959 23.507C24.741 23.5249 24.6848 23.5389 24.6279 23.549Z" fill="#F7F3EC"/>
<path d="M32.0791 21.886V23.198H34.1481C34.8551 23.208 35.2792 23.531 35.2382 24.066C35.1772 24.732 34.7231 24.866 34.1481 24.843C33.4721 24.823 32.8052 24.843 32.0892 24.843V26.276C32.8162 26.276 33.5122 26.266 34.2092 26.276C34.8752 26.286 35.2692 26.609 35.2292 27.134C35.1792 27.74 34.7752 27.934 34.2202 27.934C33.2712 27.924 32.3322 27.924 31.3832 27.934C30.7272 27.934 30.3941 27.641 30.3941 26.965C30.3941 25.047 30.4041 23.129 30.3941 21.221C30.3729 21.0876 30.383 20.951 30.4237 20.8221C30.4643 20.6933 30.5345 20.5757 30.6285 20.4786C30.7226 20.3816 30.8379 20.3078 30.9654 20.2631C31.0929 20.2184 31.2291 20.204 31.3632 20.221C32.3322 20.211 33.3012 20.221 34.2702 20.221C34.8452 20.221 35.2292 20.483 35.2192 21.069C35.2092 21.655 34.7952 21.897 34.2402 21.887L32.0791 21.886Z" fill="#F7F3EC"/>
<path d="M16.361 26.277C17.128 26.277 17.8151 26.287 18.5111 26.277C19.0661 26.267 19.4801 26.449 19.5001 27.077C19.5201 27.753 19.0861 27.925 18.5001 27.925C17.5811 27.915 16.663 27.935 15.744 27.925C14.997 27.915 14.714 27.663 14.714 26.936C14.704 25.028 14.704 23.11 14.714 21.202C14.714 20.647 14.9461 20.243 15.5521 20.243C16.1581 20.243 16.37 20.657 16.37 21.222C16.351 22.875 16.361 24.54 16.361 26.277Z" fill="#F7F3EC"/>
<path d="M21.9241 24.015V26.852C21.9241 27.427 21.773 27.892 21.106 27.902C20.439 27.912 20.248 27.478 20.248 26.893V21.21C20.248 20.645 20.4701 20.231 21.0661 20.221C21.7121 20.211 21.9241 20.645 21.9241 21.241C21.9141 22.168 21.9241 23.096 21.9241 24.015Z" fill="#F7F3EC"/>
</svg>
