<svg width="36" height="36" viewBox="0 0 36 36" fill="none" xmlns="http://www.w3.org/2000/svg">
<path d="M11.372 4.02289C11.001 4.20089 10.641 4.38991 10.291 4.59791C10.0509 4.59255 9.81548 4.66516 9.62007 4.80489C8.28783 5.74845 7.19554 6.99144 6.43105 8.43391C5.75064 9.63299 5.28719 10.9427 5.06203 12.3029C5.01602 12.6717 4.99598 13.0433 5.00203 13.4149C4.99721 13.7628 5.0119 14.1107 5.04604 14.4569C5.1302 15.2616 5.31085 16.0533 5.58406 16.8149C5.8175 17.475 6.11348 18.1112 6.46803 18.7149C6.85295 19.3748 7.3083 19.9911 7.82607 20.5529C8.75345 21.6176 9.88292 22.4877 11.1491 23.1128C12.4152 23.7378 13.7928 24.1052 15.202 24.1939C15.9117 24.2514 16.6254 24.2363 17.332 24.1489C18.1043 24.0467 18.8631 23.8606 19.595 23.5939C21.0565 23.0424 22.378 22.1747 23.465 21.0529C23.9722 20.5269 24.4218 19.9483 24.806 19.3269C25.1662 18.7658 25.4614 18.1656 25.6861 17.5379C26.2194 16.1277 26.4412 14.6189 26.3361 13.1149C26.2304 11.7755 25.8899 10.4652 25.33 9.2439C24.7458 7.98226 23.9504 6.82968 22.978 5.8359C22.4651 5.34309 21.8942 4.9143 21.278 4.55891C20.7418 4.22855 20.1781 3.94516 19.593 3.71191C18.2526 3.18069 16.8142 2.94201 15.374 3.01189L15.168 3.02289C13.8495 3.11277 12.56 3.45211 11.3681 4.02289H11.372ZM16.332 5.1379C17.1542 5.21178 17.9657 5.37577 18.752 5.6269C19.4056 5.86484 20.0292 6.17831 20.6101 6.5609C21.3202 7.06717 21.9742 7.64779 22.5611 8.2929C22.9581 8.76721 23.3009 9.28443 23.583 9.83491C23.8708 10.4589 24.0907 11.112 24.239 11.7829C24.3521 12.4711 24.392 13.1693 24.358 13.8659C24.3001 14.6287 24.1586 15.3829 23.9361 16.1149C23.6535 16.8744 23.2869 17.5999 22.843 18.2779C22.4073 18.8891 21.9071 19.4516 21.351 19.9559C20.7611 20.4403 20.1208 20.8597 19.4411 21.2069C18.7631 21.5186 18.0537 21.757 17.325 21.9179C16.5658 22.0489 15.7948 22.0989 15.025 22.0669C14.3261 21.9966 13.6369 21.8497 12.97 21.6289C12.2608 21.3573 11.5837 21.0082 10.9511 20.5879C9.83993 19.8301 8.94802 18.7929 8.36507 17.5809C8.07124 16.935 7.84505 16.2604 7.69008 15.5679C7.56118 14.7725 7.51493 13.9658 7.55208 13.1609C7.58408 12.7979 7.62503 12.4349 7.66603 12.0719C7.72305 11.6106 7.82558 11.156 7.97206 10.7149C8.18964 10.1358 8.4629 9.57918 8.78804 9.05289C9.22553 8.43734 9.72847 7.87103 10.288 7.3639C10.51 7.1779 10.737 6.9989 10.973 6.8259C11.1533 6.69584 11.2975 6.52205 11.392 6.3209C11.581 6.2029 11.774 6.09189 11.971 5.98589C12.6361 5.66986 13.3359 5.4326 14.056 5.27891C14.8058 5.14811 15.5679 5.10081 16.3281 5.1379H16.332ZM8.73207 9.1319C8.70907 9.1669 8.68503 9.20089 8.66103 9.23189L8.73207 9.1319ZM7.93807 10.8059C7.92507 10.8409 7.91306 10.8759 7.89906 10.9059L7.93807 10.8059ZM15.101 22.0749L15.2241 22.0849L15.101 22.0749Z" fill="black"/>
<path d="M20.8631 20.276C20.4914 20.5282 20.2342 20.9168 20.1472 21.3575C20.0601 21.7981 20.1502 22.2553 20.398 22.63C20.751 23.093 21.1091 23.556 21.4361 24.041C21.8241 24.612 22.2001 25.184 22.5911 25.75C23.2831 26.76 23.9911 27.758 24.6911 28.755C25.1911 29.455 25.703 30.121 26.249 30.78C26.5745 31.2302 26.9477 31.6439 27.3621 32.0139C27.6227 32.2389 27.9333 32.3984 28.2681 32.479C28.5868 32.5468 28.9178 32.5288 29.2272 32.4268C29.5366 32.3247 29.8134 32.1423 30.0291 31.8981C30.2449 31.6539 30.3919 31.3569 30.4552 31.0372C30.5184 30.7176 30.4956 30.3869 30.3891 30.0789C30.2132 29.6023 29.9653 29.1555 29.6541 28.754C29.1101 28.005 28.5791 27.263 27.9951 26.544C27.2831 25.668 26.5681 24.7969 25.8411 23.9299C25.3931 23.4019 24.9411 22.874 24.4911 22.35C24.0411 21.826 23.6271 21.288 23.2091 20.742C23.0342 20.501 22.8027 20.3069 22.5349 20.1768C22.2672 20.0467 21.9715 19.9846 21.674 19.996C21.3824 20.0148 21.1012 20.1118 20.8601 20.2769L20.8631 20.276Z" fill="black"/>
</svg>
