<svg width="51" height="50" viewBox="0 0 51 50" fill="none" xmlns="http://www.w3.org/2000/svg">
<path fill-rule="evenodd" clip-rule="evenodd" d="M35.457 15.806C34.9133 15.2415 34.263 14.7905 33.5438 14.4791C32.8246 14.1677 32.0507 14.0022 31.267 13.992C30.5274 13.9679 29.7904 14.0916 29.0992 14.356C28.408 14.6204 27.7766 15.0201 27.2419 15.5317C26.7072 16.0433 26.28 16.6565 25.9853 17.3354C25.6907 18.0142 25.5345 18.745 25.526 19.485C25.5256 19.9137 25.5756 20.341 25.675 20.758C23.396 20.6259 21.1687 20.0248 19.1326 18.9924C17.0965 17.96 15.2954 16.5184 13.842 14.758C13.3316 15.6092 13.0629 16.5835 13.065 17.576C13.0686 18.5108 13.3037 19.4302 13.7494 20.2519C14.1951 21.0737 14.8374 21.7722 15.619 22.285C14.7073 22.2483 13.8169 21.9986 13.019 21.556C13.019 21.579 13.019 21.603 13.019 21.627C13.0298 22.9406 13.494 24.2102 14.3332 25.221C15.1723 26.2318 16.3348 26.9217 17.624 27.174C16.7765 27.3937 15.8905 27.421 15.031 27.254C15.41 28.3819 16.1291 29.3646 17.0895 30.0669C18.0499 30.7693 19.2044 31.1567 20.394 31.176C18.3447 32.734 15.8383 33.572 13.264 33.56C12.8065 33.5593 12.3494 33.5323 11.895 33.479C14.5299 35.1384 17.5812 36.0167 20.695 36.012C22.8061 36.0673 24.907 35.702 26.8755 34.9373C28.844 34.1727 30.6407 33.024 32.1609 31.5582C33.6811 30.0923 34.8944 28.3387 35.7301 26.3993C36.5659 24.46 37.0075 22.3737 37.029 20.262C37.029 20.022 37.0234 19.7833 37.012 19.546C38.129 18.7829 39.0995 17.825 39.877 16.718C38.8231 17.1529 37.7114 17.4319 36.577 17.546C37.7638 16.8844 38.663 15.8062 39.101 14.52C37.9666 15.1489 36.7349 15.5835 35.457 15.806Z" fill="#DDB593"/>
</svg>
